<?xml version="1.0" standalone="no"?>
<!DOCTYPE svg PUBLIC "-//W3C//DTD SVG 20010904//EN"
 "http://www.w3.org/TR/2001/REC-SVG-20010904/DTD/svg10.dtd">
<svg version="1.0" xmlns="http://www.w3.org/2000/svg"
 width="512.000000pt" height="512.000000pt" viewBox="0 0 512.000000 512.000000"
 preserveAspectRatio="xMidYMid meet">

<g transform="translate(0.000000,512.000000) scale(0.100000,-0.100000)"
fill="#000000" stroke="none">
<path d="M2180 4544 c-37 -16 -70 -42 -70 -56 0 -4 194 -8 430 -8 237 0 430 4
430 8 0 14 -33 40 -73 57 -53 22 -665 22 -717 -1z"/>
<path d="M195 4414 c-33 -36 -41 -98 -20 -152 10 -23 26 -47 36 -52 11 -6 314
-10 803 -10 l786 0 0 120 0 120 -790 0 -791 0 -24 -26z"/>
<path d="M3280 4320 l0 -120 810 0 811 0 23 25 c44 48 44 142 0 190 l-23 25
-811 0 -810 0 0 -120z"/>
<path d="M2387 4093 c-8 -16 -101 -222 -207 -460 l-192 -432 -407 -3 c-396 -3
-407 -4 -463 -26 -162 -65 -278 -216 -306 -397 l-9 -55 342 0 c339 0 342 0
376 -23 18 -12 44 -38 56 -56 l23 -34 0 -610 c0 -602 0 -610 -21 -647 -12 -21
-38 -47 -59 -59 -36 -20 -50 -21 -379 -21 l-341 0 0 -72 c1 -266 160 -533 386
-646 143 -72 45 -67 1374 -67 1334 0 1232 -5 1379 70 225 114 380 377 381 643
l0 72 -346 0 c-334 0 -348 1 -384 21 -21 12 -47 38 -59 59 -21 37 -21 45 -21
645 0 600 0 608 21 645 12 21 38 47 59 59 36 20 50 21 382 21 l345 0 -9 55
c-28 181 -144 332 -306 397 -56 22 -67 23 -463 26 l-407 3 -204 457 -204 457
-162 3 -161 2 -14 -27z m234 -321 l56 -127 -59 -3 c-32 -2 -84 -2 -116 0 l-59
3 56 127 c31 70 58 128 61 128 3 0 30 -58 61 -128z m156 -349 c14 -32 34 -77
44 -100 l18 -43 -279 0 -279 0 26 58 c14 31 34 76 44 100 l18 42 191 0 191 0
26 -57z m353 -724 c21 -12 47 -38 59 -59 21 -37 21 -45 21 -645 0 -671 2 -651
-64 -698 l-31 -22 -535 -2 -535 -3 -39 23 c-79 45 -76 15 -76 702 0 687 -3
657 76 702 39 23 39 23 563 23 515 0 524 0 561 -21z"/>
</g>
</svg>
